<svg width="136" height="161" viewBox="0 0 136 161" fill="none" xmlns="http://www.w3.org/2000/svg">
<path d="M135.311 111.658C135.311 120.366 130.634 128.396 123.071 132.695L78.9707 157.755L78.9668 157.756C75.5121 159.716 71.6879 160.765 67.833 160.884C67.8213 160.885 67.8096 160.886 67.7979 160.886L67.7969 160.885C63.3402 161.042 58.8333 159.957 54.8398 157.627L12.0254 132.71C4.57506 128.373 0 120.405 0 111.788V50.568C0 50.4395 0.00688221 50.3119 0.0166016 50.1851C0.203879 45.8246 2.17494 41.7814 5.41602 38.9576L5.44043 38.9361C6.15933 38.3179 6.94368 37.7518 7.79199 37.2545L58.9883 7.12265L59.4473 6.8619C64.2234 4.25299 70.0329 4.28165 74.7998 6.99081L84.0195 12.2291L103.365 1.21347C106.828 -0.76105 110.723 -0.187142 113.461 1.93417C114.266 1.77825 115.086 1.69785 115.91 1.69784C123.071 1.69784 128.89 7.5159 128.891 14.6773V43.9771L132.67 46.1627C132.724 46.1919 132.78 46.2202 132.834 46.2516C134.368 47.1482 135.311 48.7913 135.311 50.568V111.658Z" fill="white"/>
<path d="M130.31 50.5679V111.658C130.31 118.568 126.6 124.938 120.6 128.348L76.5003 153.408C73.7503 154.968 70.7103 155.798 67.6503 155.888V86.5079L83.1503 77.5379C85.5403 76.1479 88.5503 77.8779 88.5503 80.6479V89.9879C88.5503 93.7979 92.6903 96.1679 95.9703 94.2379L104.36 89.2979C107.4 87.5079 109.27 84.2379 109.27 80.7079V64.5179C109.27 63.2179 109.97 62.0179 111.1 61.3879L130.31 50.5679Z" fill="#152639"/>
<path d="M67.6502 86.5079V155.888C64.1102 156.018 60.5302 155.158 57.3602 153.308L14.5402 128.388C8.63024 124.948 5.00024 118.628 5.00024 111.788V50.5679L67.6502 86.5079Z" fill="#121427"/>
<path d="M115.91 6.69812C120.31 6.69812 123.89 10.2777 123.891 14.6776V54.1835L120.04 56.3524V14.6776C120.04 12.3431 118.182 10.6558 116.111 10.5526L115.91 10.538C115.23 10.538 114.54 10.7178 113.88 11.0878L59.6006 41.9979C57.7106 43.0679 56.5498 45.0682 56.5498 47.2382V80.1395L52.7002 77.9305V47.2479C52.7002 43.6979 54.6104 40.4081 57.6904 38.6581L111.97 7.74792C113.18 7.05793 114.54 6.69813 115.91 6.69812Z" fill="#812080"/>
<path d="M113.87 11.0982C116.62 9.52819 120.03 11.5183 120.03 14.6783V56.358L111.101 61.3882C109.971 62.0182 109.271 63.2181 109.271 64.5181V80.7076C109.271 84.2376 107.4 87.5084 104.36 89.2984L95.9707 94.2378C92.6907 96.1678 88.5498 93.7978 88.5498 89.9878V80.648C88.5498 77.8781 85.5404 76.1479 83.1504 77.5376L67.6504 86.5083L56.54 80.1343V47.2476C56.5402 45.0779 57.7102 43.0783 59.5898 42.0083L113.87 11.0982Z" fill="#E8EDF9"/>
<path d="M105.84 5.55823C108.191 4.21576 111.023 5.4771 111.795 7.84632L57.6904 38.6578C54.6105 40.4078 52.7003 43.6978 52.7002 47.2477V77.9303L67.6504 86.5084L48.5098 75.528V41.7076C48.5099 39.5378 49.6807 37.5383 51.5605 36.4684L105.84 5.55823Z" fill="#402667"/>
<path d="M112 12.1627L59.5898 42.0084C58.7678 42.4764 58.0814 43.1223 57.5693 43.8825C58.0816 43.1179 58.7704 42.4677 59.6006 41.9977L112 12.1578V12.1627Z" fill="#402667"/>
<path d="M61.5303 11.4282C64.8503 9.46822 68.9701 9.42838 72.3301 11.3384L84.0215 17.9819L51.5605 36.4683C49.6807 37.5383 48.5108 39.5386 48.5107 41.7085V65.5728L8.7002 42.728C9.2002 42.298 9.74031 41.9079 10.3203 41.5679L61.5303 11.4282Z" fill="#DE0E7F"/>
<path d="M48.5107 75.5272L5.00391 50.5702C5.08703 47.5231 6.44352 44.6935 8.7002 42.7274L48.5107 65.5721V75.5272Z" fill="#812080"/>
<path d="M123.891 46.8632V54.1835L130.3 50.5682L123.891 46.8632Z" fill="#121427"/>
</svg>
