<svg width="325" height="169" viewBox="0 0 325 169" fill="none" xmlns="http://www.w3.org/2000/svg">
<g clip-path="url(#clip0_7_10)">
<path d="M21.4301 110.47L53.1101 101.97L56.0401 38.11L211.74 8.49004C213.38 8.18004 215.04 8.88004 215.96 10.27L229.15 31.58C230.64 33.84 231.4 36.51 231.31 39.22L228.32 136.37C228.24 138.92 226.33 141.05 223.81 141.4L88.4301 163.19C87.4201 163.33 86.4001 163.33 85.3901 163.19L17.9301 157.61L21.4401 110.47H21.4301Z" fill="#121427"/>
<path d="M319.275 50.5597V111.65C319.275 118.56 315.565 124.93 309.565 128.34L265.465 153.4C262.715 154.96 259.675 155.79 256.615 155.88V86.4997L272.115 77.5297C274.505 76.1397 277.515 77.8697 277.515 80.6397V89.9797C277.515 93.7897 281.655 96.1597 284.935 94.2297L293.325 89.2897C296.365 87.4997 298.235 84.2297 298.235 80.6997V64.5097C298.235 63.2097 298.935 62.0097 300.065 61.3797L319.275 50.5597Z" fill="#152639"/>
<path d="M256.615 86.4997V155.88C253.075 156.01 249.495 155.15 246.325 153.3L203.505 128.38C197.595 124.94 193.965 118.62 193.965 111.78V50.5597L256.615 86.4997Z" fill="#121427"/>
<path d="M304.875 6.68994C309.275 6.68994 312.855 10.2696 312.855 14.6694V54.1753L309.005 56.3442V14.6694C309.005 12.3349 307.147 10.6476 305.076 10.5444L304.875 10.5298C304.195 10.5298 303.505 10.7096 302.845 11.0796L248.565 41.9897C246.675 43.0597 245.515 45.06 245.515 47.23V80.1313L241.665 77.9224V47.2397C241.665 43.6897 243.575 40.3999 246.655 38.6499L300.934 7.73975C302.144 7.04975 303.505 6.68995 304.875 6.68994Z" fill="#812080"/>
<path d="M302.835 11.09C305.585 9.52001 308.995 11.5101 308.995 14.6701V56.3498L300.065 61.38C298.935 62.01 298.235 63.2099 298.235 64.5099V80.6994C298.235 84.2294 296.365 87.5002 293.325 89.2902L284.935 94.2297C281.655 96.1597 277.515 93.7897 277.515 89.9797V80.6398C277.515 77.8699 274.505 76.1397 272.115 77.5295L256.615 86.5002L245.505 80.1261V47.2394C245.505 45.0698 246.675 43.0702 248.555 42.0002L302.835 11.09Z" fill="#E8EDF9"/>
<path d="M294.805 5.55005C297.156 4.20758 299.988 5.46892 300.76 7.83814L246.655 38.6497C243.575 40.3996 241.665 43.6896 241.665 47.2395V77.9221L256.615 86.5002L237.474 75.5198V41.6995C237.475 39.5297 238.645 37.5301 240.525 36.4602L294.805 5.55005Z" fill="#402667"/>
<path d="M300.965 12.1545L248.555 42.0002C247.732 42.4683 247.046 43.1142 246.534 43.8743C247.046 43.1097 247.735 42.4595 248.565 41.9895L300.965 12.1497V12.1545Z" fill="#402667"/>
<path d="M250.495 11.42C253.815 9.46004 257.935 9.4202 261.295 11.3302L272.986 17.9738L240.525 36.4601C238.645 37.5301 237.476 39.5304 237.475 41.7003V65.5646L197.665 42.7198C198.165 42.2898 198.705 41.8997 199.285 41.5597L250.495 11.42Z" fill="#DE0E7F"/>
<path d="M237.475 75.519L193.969 50.562C194.052 47.5149 195.408 44.6854 197.665 42.7192L237.475 65.564V75.519Z" fill="#812080"/>
<path d="M312.855 46.855V54.1753L319.265 50.5601L312.855 46.855Z" fill="#121427"/>
<path d="M69.31 66.9C70.15 57.48 70.34 55.26 67.64 55.26C66.91 55.26 65.96 55.42 64.76 55.65L63.14 55.96L60.97 80.45L62.59 80.14C68.24 79.07 68.28 78.58 69.32 66.9H69.31Z" fill="#121427"/>
<path d="M216.33 67.95C215.38 66.85 213.93 65.64 211.91 64.78C211.93 63.51 211.66 62.24 211.05 61.09L201.25 42.46L214.62 21.46C215.47 20.22 215.97 18.72 215.97 17.11C215.97 12.92 212.62 9.50003 208.45 9.41003C208.39 9.41003 208.33 9.41003 208.27 9.41003C208.12 9.41003 207.97 9.41003 207.82 9.42003C207.43 9.44003 207.05 9.49003 206.68 9.57003L190.09 12.71C188.08 13.09 186.31 14.26 185.16 15.94C183.88 15.07 182.37 14.61 180.83 14.61C180.35 14.61 179.87 14.65 179.4 14.74L163.66 17.72C162.54 17.93 161.53 18.4 160.65 19.03C160.38 19.03 160.14 19.01 159.85 19.01C156.23 19.01 150.96 21.66 146.97 22.42C139.11 23.91 134.05 23.9 129.97 27C128.58 25.83 126.83 25.18 125.04 25.18C124.56 25.18 124.08 25.22 123.61 25.31L89.72 31.73C87.14 32.22 85.05 33.97 84.07 36.3C80.92 35.12 77.9 35.11 76.57 35.11C73.36 35.11 69.42 35.57 64.17 36.57L47.02 39.82C43.64 40.46 41.09 43.27 40.78 46.71L36.64 93.36C35.07 93.49 33.49 93.69 32.03 93.95C11.92 97.57 8.87001 108.97 6.24001 127.31C4.60001 138.75 3.82001 147.3 8.77001 153C11.52 156.18 15.55 157.79 20.73 157.79C22.79 157.79 25.13 157.55 27.89 157.05C31.77 156.35 36.57 154.99 39.66 153.73C40.24 153.87 40.83 153.96 41.43 153.96C41.88 153.96 42.34 153.92 42.79 153.84L69.83 148.97C70.76 148.8 71.61 148.46 72.39 148C72.85 148.09 73.32 148.14 73.8 148.14C74.28 148.14 74.71 148.1 75.16 148.02L87.13 145.87C88.76 145.58 90.2 144.78 91.3 143.65C92.32 144.14 93.45 144.4 94.61 144.4C95.06 144.4 95.52 144.36 95.98 144.28L107.52 142.2C110.06 141.74 112.14 140.05 113.16 137.77C113.2 137.82 113.23 137.87 113.28 137.91C114.73 139.31 116.65 140.07 118.63 140.07C119.08 140.07 119.54 140.03 119.99 139.95L132.54 137.69C135.1 137.23 137.19 135.51 138.2 133.21C138.26 133.27 138.29 133.34 138.35 133.39C139.8 134.79 141.72 135.55 143.7 135.55C144.15 135.55 144.61 135.51 145.06 135.43L172.1 130.56C173.03 130.39 173.88 130.05 174.66 129.59C175.12 129.68 175.59 129.73 176.07 129.73C176.55 129.73 176.98 129.69 177.43 129.61L189.98 127.35C191.08 127.15 192.09 126.72 192.97 126.12C193.58 126.27 194.21 126.35 194.84 126.35C195.29 126.35 195.75 126.31 196.2 126.23L209.08 123.91C213.19 123.17 215.96 119.29 215.33 115.17L213.37 102.35C217.1 97.57 218.24 91.7 219 86.38C219.95 79.73 220.53 72.84 216.32 67.98L216.33 67.95Z" fill="#121427"/>
<path d="M197.78 83.37C197.32 83.37 196.72 83.45 195.95 83.59L193.75 83.99L192.37 93.59L194.62 93.18C197.68 92.63 198.14 92.35 198.79 87.78C199.27 84.43 199.42 83.36 197.77 83.36L197.78 83.37Z" fill="#121427"/>
<path d="M48.49 46.89L65.66 43.75C87.14 39.82 86.87 44.76 85.08 63.57C83.29 82.38 82.62 87.39 61.14 91.32L43.97 94.46L48.49 46.89ZM62.44 79.74C68.1 78.71 68.14 78.22 69.25 66.54C70.39 54.58 70.42 54.23 64.77 55.26L63.15 55.56L60.82 80.04L62.44 79.74Z" fill="white"/>
<path d="M91.24 39.07L125.17 32.86L124.07 44.4L105.82 47.74L105.22 54.1L120.3 51.34L119.23 62.61L104.15 65.37L103.5 72.22L121.75 68.88L120.65 80.43L86.72 86.64L91.24 39.07Z" fill="white"/>
<path d="M126.6 55.97C128.37 37.3 131.07 31.24 149.11 27.94C153.35 27.16 158.48 26.77 161.51 26.97L160.49 37.75C155.07 38.34 153 38.58 151.72 38.81C143.64 40.29 143.54 41.4 142.43 53.08C141.31 64.84 141.21 65.87 149.29 64.39C151.98 63.9 155.77 63 158.43 62.18L157.38 73.18C154.29 74.35 148.86 75.82 144.48 76.62C126.44 79.92 124.82 74.64 126.6 55.97Z" fill="white"/>
<path d="M80.51 93.57L93.33 91.26L97.93 108.08L98.31 108.01L100.9 89.9L112.87 87.75L106.16 134.6L94.62 136.68L89.22 116.36L88.9 116.42L85.77 138.28L73.8 140.43L80.51 93.58V93.57Z" fill="white"/>
<path d="M165.27 25.53L181.02 22.65L179.33 40.42L180 40.3L191.72 20.7L208.49 17.63L192.43 42.51L204.17 65.16L187 68.3L178.93 51.57L178.26 51.69L176.5 70.22L160.75 73.1L165.27 25.53Z" fill="white"/>
<path d="M13.85 128.39C16.48 110 19 104.11 33.38 101.52C36.76 100.91 40.81 100.72 43.18 101.02L41.66 111.64C37.37 112.02 35.73 112.18 34.71 112.36C28.27 113.52 28.12 114.61 26.47 126.12C24.82 137.63 24.67 138.72 31.1 137.56C33.25 137.17 36.28 136.43 38.42 135.71L36.87 146.54C34.37 147.58 30.01 148.83 26.52 149.46C12.14 152.05 11.22 146.77 13.86 128.39H13.85Z" fill="white"/>
<path d="M48.13 99.4L75.17 94.53L73.54 105.9L59 108.52L58.1 114.79L70.12 112.63L68.53 123.73L56.51 125.89L55.54 132.63L70.08 130.01L68.45 141.38L41.41 146.25L48.12 99.4H48.13Z" fill="white"/>
<path d="M123.62 97.48L114.6 99.1L116.32 87.12L146.96 81.6L145.24 93.58L136.17 95.21L131.18 130.08L118.62 132.34L123.61 97.47L123.62 97.48Z" fill="white"/>
<path d="M150.41 80.98L177.45 76.11L175.82 87.48L161.28 90.1L160.38 96.37L172.4 94.21L170.81 105.31L158.79 107.47L157.82 114.21L172.36 111.59L170.73 122.96L143.69 127.83L150.4 80.98H150.41Z" fill="white"/>
<path d="M182.78 75.15L202.2 71.65C212.13 69.86 212.9 74.7 211.39 85.25C210.47 91.65 209.2 96.52 205.19 99.7L207.73 116.29L194.85 118.61L193.38 103.68L190.86 104.13L188.63 119.72L176.07 121.98L182.78 75.13V75.15ZM194.63 93.18C197.69 92.63 198.15 92.35 198.8 87.78C199.41 83.49 199.49 82.94 195.95 83.58L193.75 83.98L192.37 93.58L194.62 93.17L194.63 93.18Z" fill="white"/>
<path d="M296.84 5C298.58 5 300.21 6.13 300.76 7.84L300.94 7.74C302.15 7.05 303.51 6.69 304.88 6.69C309.28 6.69 312.86 10.27 312.86 14.67V46.85L319.28 50.56V111.65C319.28 118.56 315.57 124.93 309.57 128.34L265.47 153.4C262.72 154.96 259.68 155.79 256.62 155.88C256.39 155.88 256.16 155.89 255.92 155.89C252.61 155.89 249.29 155.03 246.33 153.3L225.17 140.98C224.74 141.17 224.29 141.32 223.81 141.38L88.43 163.17C87.93 163.24 87.42 163.27 86.92 163.27C86.42 163.27 85.9 163.23 85.39 163.16L52.365 160.43L19.34 157.7C19 157.68 18.67 157.65 18.35 157.62L17.93 157.59V157.57C14.08 157.08 11 155.55 8.75997 152.97C3.80997 147.26 4.58997 138.72 6.22997 127.28C8.85997 108.94 11.9 97.55 32.02 93.93C33.48 93.67 35.05 93.47 36.63 93.34L40.77 46.69C41.07 43.26 43.62 40.45 47.01 39.8L51.56 38.94L56.11 38.08L211.74 8.49C212 8.44 212.26 8.42 212.51 8.42C213.88 8.42 215.18 9.1 215.96 10.28L225.7 26.03L250.5 11.44C252.19 10.44 254.08 9.94 255.98 9.94C257.88 9.94 259.65 10.41 261.3 11.35L272.98 17.99L294.81 5.56C295.47 5.19 296.16 5.02 296.84 5.02M296.84 0C295.27 0 293.72 0.41 292.34 1.2L272.98 12.22L263.77 6.99C261.4 5.64 258.71 4.93 255.98 4.93C253.25 4.93 250.39 5.69 247.96 7.12L227.39 19.23L220.22 7.64C220.22 7.64 220.17 7.56 220.14 7.52C218.45 4.95 215.6 3.42 212.52 3.42C211.95 3.42 211.37 3.47 210.81 3.58L55.16 33.18L46.07 34.9C40.51 35.95 36.28 40.62 35.78 46.26L32 88.87C31.71 88.92 31.42 88.97 31.13 89.02C20.2 90.99 12.97 95.24 8.35997 102.39C4.06997 109.06 2.55997 117.64 1.27997 126.58C-0.490033 138.93 -1.34003 148.96 4.97997 156.26C7.92997 159.67 11.91 161.76 16.81 162.48C17.04 162.53 17.27 162.57 17.51 162.59L17.87 162.62C18.23 162.66 18.6 162.69 18.98 162.71L84.85 168.15C85.53 168.24 86.23 168.28 86.92 168.28C87.65 168.28 88.4 168.23 89.12 168.13C89.15 168.13 89.19 168.12 89.22 168.11L224.44 146.34L243.81 157.61C247.48 159.75 251.66 160.88 255.92 160.88C256.21 160.88 256.51 160.88 256.8 160.86C260.66 160.75 264.53 159.66 267.93 157.73L312.03 132.67C319.58 128.38 324.27 120.32 324.27 111.63V50.54C324.27 50.05 324.2 49.57 324.06 49.11C323.7 47.9 322.89 46.85 321.77 46.2L317.85 43.93V14.67C317.85 7.51 312.03 1.69 304.87 1.69C304.05 1.69 303.24 1.77 302.44 1.92C300.88 0.7 298.92 0 296.82 0L296.84 0Z" fill="white"/>
</g>
<defs>
<clipPath id="clip0_7_10">
<rect width="324.28" height="168.29" fill="white"/>
</clipPath>
</defs>
</svg>
