<svg width="136" height="162" viewBox="0 0 136 162" fill="none" xmlns="http://www.w3.org/2000/svg">
<path d="M104.612 4.37756C107.503 2.72868 110.818 3.52823 112.783 5.67737C113.797 5.35693 114.855 5.19007 115.92 5.19006L116.459 5.20374C121.99 5.48501 126.4 10.0695 126.4 15.6696V46.4127L131.428 49.319C131.48 49.3449 131.532 49.3731 131.583 49.403C132.349 49.8515 132.82 50.6725 132.82 51.5602V112.65L132.808 113.38C132.555 120.906 128.415 127.78 121.846 131.513L77.7451 156.574L77.7432 156.575C74.6352 158.338 71.1962 159.277 67.7334 159.379L67.7324 159.378C63.7351 159.521 59.6933 158.549 56.1123 156.46L13.292 131.541C6.61212 127.652 2.5098 120.509 2.50977 112.78V51.776C2.5047 51.7174 2.50092 51.6585 2.5 51.5992C2.49796 51.4671 2.50805 51.3362 2.52637 51.2076C2.70383 47.5655 4.35934 44.1952 7.06738 41.8356C7.08469 41.8205 7.10241 41.8052 7.12012 41.7906L7.50293 41.4752C7.51721 41.4635 7.53234 41.4525 7.54688 41.441C8.02246 41.0667 8.52713 40.7194 9.06152 40.4059L60.2715 10.2653C64.3604 7.8526 69.4349 7.80345 73.5742 10.1559L84.0303 16.0963L104.612 4.37756Z" fill="white" stroke="white" stroke-width="5" stroke-linejoin="round"></path>
<path d="M5 51.56L67.66 15.35L130.31 51.56L67.66 87.51L5 51.56Z" fill="#020202"></path>
<path d="M71.48 79.74L120.05 48.36V105.7L56.56 141.54L5.01001 111.8V51.86C5.01001 48.7 6.38001 45.75 8.71001 43.72L71.48 79.74Z" fill="#812080"></path>
<path d="M120.05 41.29V48.36L71.48 79.74L8.70996 43.72C9.20996 43.29 9.74996 42.9 10.33 42.56L61.54 12.42C64.86 10.46 68.98 10.42 72.34 12.33L87.79 21.11L120.05 41.29Z" fill="#DE0E7F"></path>
<path d="M48.52 136L112.01 100.16V10.13C112.01 6.96998 108.6 4.97998 105.85 6.54998L51.57 37.46C49.69 38.53 48.52 40.53 48.52 42.7V136.01V136Z" fill="#402667"></path>
<path d="M56.55 141.55L120.04 105.71V15.67C120.04 12.51 116.63 10.52 113.88 12.09L59.6001 43C57.7201 44.07 56.55 46.07 56.55 48.24V141.55Z" fill="#E8EDF9"></path>
<path d="M115.92 11.5399C118.07 11.5399 120.05 13.2599 120.05 15.6699V105.71L56.56 141.55V48.2299C56.56 46.0599 57.72 44.0599 59.61 42.9899L113.89 12.0799C114.55 11.7099 115.24 11.5299 115.92 11.5299M115.92 7.68994C114.55 7.68994 113.19 8.04994 111.98 8.73994L57.7 39.6499C54.62 41.3999 52.71 44.6899 52.71 48.2399V148.15L58.45 144.91L121.94 109.07L123.9 107.97V15.6699C123.9 11.2699 120.32 7.68994 115.92 7.68994Z" fill="#812080"></path>
<path d="M130.32 51.5599V112.65C130.32 119.56 126.61 125.93 120.61 129.34L76.51 154.4C73.76 155.96 70.72 156.79 67.66 156.88V87.4999L83.16 78.5299C85.55 77.1399 88.56 78.8699 88.56 81.6399V90.9799C88.56 94.7899 92.7 97.1599 95.98 95.2299L104.37 90.2899C107.41 88.4999 109.28 85.2299 109.28 81.6999V65.5099C109.28 64.2099 109.98 63.0099 111.11 62.3799L130.32 51.5599Z" fill="#152639"></path>
<path d="M67.66 87.4999V156.88C64.12 157.01 60.54 156.15 57.37 154.3L14.55 129.38C8.64 125.94 5.01001 119.62 5.01001 112.78V51.5599L67.66 87.4999Z" fill="#121427"></path>
</svg>