<svg width="238" height="166" viewBox="0 0 238 166" fill="none" xmlns="http://www.w3.org/2000/svg">
<g clip-path="url(#clip0_43_10)">
<path d="M70.31 63.9C71.15 54.48 71.34 52.26 68.64 52.26C67.91 52.26 66.96 52.42 65.76 52.65L64.14 52.96L61.97 77.45L63.59 77.14C69.24 76.07 69.28 75.58 70.32 63.9H70.31Z" fill="#121427"/>
<mask id="path-2-outside-1_43_10" maskUnits="userSpaceOnUse" x="0.988525" y="-0.58252" width="237" height="166" fill="black">
<rect fill="white" x="0.988525" y="-0.58252" width="237" height="166"/>
<path d="M212.74 5.49002C214.38 5.18002 216.04 5.8803 216.96 7.2703L230.15 28.5799C231.64 30.8399 232.4 33.5105 232.31 36.2205L229.32 133.37C229.24 135.92 227.33 138.05 224.81 138.4L89.4301 160.19C88.4201 160.33 87.4001 160.33 86.3901 160.19L20.934 154.775C16.1358 154.617 12.3774 153.015 9.76995 150C4.82019 144.3 5.59973 135.75 7.23968 124.31C9.86967 105.97 12.92 94.57 33.0297 90.95C34.4897 90.69 36.0701 90.4901 37.6401 90.3601L41.7797 43.7098C42.0898 40.2699 44.6401 37.4601 48.02 36.8201L57.0395 35.1101H57.0405L212.74 5.49002Z"/>
</mask>
<path d="M212.74 5.49002C214.38 5.18002 216.04 5.8803 216.96 7.2703L230.15 28.5799C231.64 30.8399 232.4 33.5105 232.31 36.2205L229.32 133.37C229.24 135.92 227.33 138.05 224.81 138.4L89.4301 160.19C88.4201 160.33 87.4001 160.33 86.3901 160.19L20.934 154.775C16.1358 154.617 12.3774 153.015 9.76995 150C4.82019 144.3 5.59973 135.75 7.23968 124.31C9.86967 105.97 12.92 94.57 33.0297 90.95C34.4897 90.69 36.0701 90.4901 37.6401 90.3601L41.7797 43.7098C42.0898 40.2699 44.6401 37.4601 48.02 36.8201L57.0395 35.1101H57.0405L212.74 5.49002Z" fill="#121427"/>
<path d="M212.74 5.49002L211.811 0.577022L211.805 0.578118L212.74 5.49002ZM216.96 7.2703L221.212 4.63884L221.172 4.57412L221.13 4.51066L216.96 7.2703ZM230.15 28.5799L225.898 31.2113L225.936 31.2722L225.975 31.332L230.15 28.5799ZM232.31 36.2205L227.313 36.0545L227.312 36.0667L232.31 36.2205ZM229.32 133.37L234.317 133.527L234.317 133.524L229.32 133.37ZM224.81 138.4L224.122 133.448L224.069 133.455L224.015 133.464L224.81 138.4ZM89.4301 160.19L90.1166 165.143L90.1707 165.135L90.2247 165.127L89.4301 160.19ZM86.3901 160.19L87.0766 155.238L86.9399 155.219L86.8023 155.207L86.3901 160.19ZM20.934 154.775L21.3462 149.792L21.2227 149.782L21.0987 149.778L20.934 154.775ZM9.76995 150L13.5519 146.729L13.5452 146.721L9.76995 150ZM7.23968 124.31L2.29031 123.601L2.29028 123.601L7.23968 124.31ZM33.0297 90.95L32.1531 86.0274L32.1439 86.0291L33.0297 90.95ZM37.6401 90.3601L38.0527 95.3431L42.2484 94.9957L42.6205 90.8021L37.6401 90.3601ZM41.7797 43.7098L36.7999 43.2608L36.7993 43.2678L41.7797 43.7098ZM48.02 36.8201L48.9502 41.7328L48.9513 41.7326L48.02 36.8201ZM57.0395 35.1101V30.1101H56.5697L56.1082 30.1976L57.0395 35.1101ZM57.0405 35.1101V40.1101H57.5118L57.9749 40.022L57.0405 35.1101ZM212.74 5.49002L213.668 10.403C213.335 10.4661 212.984 10.322 212.791 10.0299L216.96 7.2703L221.13 4.51066C219.097 1.43858 215.425 -0.106063 211.811 0.577025L212.74 5.49002ZM216.96 7.2703L212.709 9.90176L225.898 31.2113L230.15 28.5799L234.401 25.9484L221.212 4.63884L216.96 7.2703ZM230.15 28.5799L225.975 31.332C226.9 32.7346 227.368 34.387 227.313 36.0545L232.31 36.2205L237.307 36.3865C237.432 32.634 236.38 28.9451 234.324 25.8277L230.15 28.5799ZM232.31 36.2205L227.312 36.0667L224.322 133.216L229.32 133.37L234.317 133.524L237.308 36.3743L232.31 36.2205ZM229.32 133.37L224.322 133.213C224.32 133.271 224.3 133.324 224.257 133.372C224.214 133.421 224.168 133.441 224.122 133.448L224.81 138.4L225.498 143.353C230.441 142.666 234.161 138.501 234.317 133.527L229.32 133.37ZM224.81 138.4L224.015 133.464L88.6356 155.254L89.4301 160.19L90.2247 165.127L225.605 143.337L224.81 138.4ZM89.4301 160.19L88.7436 155.238C88.1891 155.314 87.6311 155.314 87.0766 155.238L86.3901 160.19L85.7036 165.143C87.1691 165.346 88.6511 165.346 90.1166 165.143L89.4301 160.19ZM86.3901 160.19L86.8023 155.207L21.3462 149.792L20.934 154.775L20.5218 159.758L85.9778 165.173L86.3901 160.19ZM20.934 154.775L21.0987 149.778C17.3784 149.655 15.0592 148.472 13.5519 146.729L9.76995 150L5.98798 153.27C9.69571 157.558 14.8933 159.579 20.7693 159.772L20.934 154.775ZM9.76995 150L13.5452 146.721C12.0543 145.005 11.2123 142.672 11.0272 139.052C10.8365 135.324 11.3627 130.785 12.1891 125.02L7.23968 124.31L2.29028 123.601C1.47673 129.276 0.793119 134.731 1.0402 139.563C1.29277 144.502 2.53588 149.295 5.99473 153.278L9.76995 150ZM7.23968 124.31L12.1891 125.02C13.5226 115.721 14.8544 109.363 17.7829 104.818C20.4357 100.701 24.811 97.5098 33.9156 95.8709L33.0297 90.95L32.1439 86.0291C21.1387 88.0102 13.934 92.3291 9.3767 99.4021C5.09507 106.047 3.58673 114.56 2.29031 123.601L7.23968 124.31ZM33.0297 90.95L33.9063 95.8725C35.1964 95.6428 36.6208 95.4617 38.0527 95.3431L37.6401 90.3601L37.2275 85.3772C35.5194 85.5186 33.783 85.7372 32.1531 86.0274L33.0297 90.95ZM37.6401 90.3601L42.6205 90.8021L46.7602 44.1517L41.7797 43.7098L36.7993 43.2678L32.6596 89.9182L37.6401 90.3601ZM41.7797 43.7098L46.7595 44.1587C46.8694 42.9403 47.7702 41.9563 48.9502 41.7328L48.02 36.8201L47.0897 31.9074C41.51 32.964 37.3103 37.5995 36.7999 43.2608L41.7797 43.7098ZM48.02 36.8201L48.9513 41.7326L57.9708 40.0226L57.0395 35.1101L56.1082 30.1976L47.0886 31.9076L48.02 36.8201ZM57.0395 35.1101V40.1101H57.0405V35.1101V30.1101H57.0395V35.1101ZM57.0405 35.1101L57.9749 40.022L213.674 10.4019L212.74 5.49002L211.805 0.578118L56.106 30.1982L57.0405 35.1101Z" fill="white" mask="url(#path-2-outside-1_43_10)"/>
<path d="M198.78 80.3701C198.32 80.3701 197.72 80.4501 196.95 80.5901L194.75 80.9901L193.37 90.5901L195.62 90.1801C198.68 89.6301 199.14 89.3501 199.79 84.7801C200.27 81.4301 200.42 80.3601 198.77 80.3601L198.78 80.3701Z" fill="#121427"/>
<path d="M49.49 43.89L66.66 40.75C88.14 36.82 87.87 41.76 86.08 60.57C84.29 79.38 83.62 84.39 62.14 88.32L44.97 91.46L49.49 43.89ZM63.44 76.74C69.1 75.71 69.14 75.22 70.25 63.54C71.39 51.58 71.42 51.23 65.77 52.26L64.15 52.56L61.82 77.04L63.44 76.74Z" fill="white"/>
<path d="M92.24 36.07L126.17 29.86L125.07 41.4L106.82 44.74L106.22 51.1L121.3 48.34L120.23 59.61L105.15 62.37L104.5 69.22L122.75 65.88L121.65 77.43L87.72 83.64L92.24 36.07Z" fill="white"/>
<path d="M127.6 52.97C129.37 34.3 132.07 28.24 150.11 24.94C154.35 24.16 159.48 23.77 162.51 23.97L161.49 34.75C156.07 35.34 154 35.58 152.72 35.81C144.64 37.29 144.54 38.4 143.43 50.08C142.31 61.84 142.21 62.87 150.29 61.39C152.98 60.9 156.77 60 159.43 59.18L158.38 70.18C155.29 71.35 149.86 72.82 145.48 73.62C127.44 76.92 125.82 71.64 127.6 52.97Z" fill="white"/>
<path d="M81.51 90.57L94.33 88.26L98.93 105.08L99.31 105.01L101.9 86.9L113.87 84.75L107.16 131.6L95.62 133.68L90.22 113.36L89.9 113.42L86.77 135.28L74.8 137.43L81.51 90.58V90.57Z" fill="white"/>
<path d="M166.27 22.53L182.02 19.65L180.33 37.42L181 37.3L192.72 17.7L209.49 14.63L193.43 39.51L205.17 62.16L188 65.3L179.93 48.57L179.26 48.69L177.5 67.22L161.75 70.1L166.27 22.53Z" fill="white"/>
<path d="M14.85 125.39C17.48 107 20 101.11 34.38 98.52C37.76 97.91 41.81 97.72 44.18 98.02L42.66 108.64C38.37 109.02 36.73 109.18 35.71 109.36C29.27 110.52 29.12 111.61 27.47 123.12C25.82 134.63 25.67 135.72 32.1 134.56C34.25 134.17 37.28 133.43 39.42 132.71L37.87 143.54C35.37 144.58 31.01 145.83 27.52 146.46C13.14 149.05 12.22 143.77 14.86 125.39H14.85Z" fill="white"/>
<path d="M49.13 96.4L76.17 91.53L74.54 102.9L60 105.52L59.1 111.79L71.12 109.63L69.53 120.73L57.51 122.89L56.54 129.63L71.08 127.01L69.45 138.38L42.41 143.25L49.12 96.4H49.13Z" fill="white"/>
<path d="M124.62 94.4801L115.6 96.1001L117.32 84.1201L147.96 78.6001L146.24 90.5801L137.17 92.2101L132.18 127.08L119.62 129.34L124.61 94.4701L124.62 94.4801Z" fill="white"/>
<path d="M151.41 77.9801L178.45 73.1101L176.82 84.4801L162.28 87.1001L161.38 93.3701L173.4 91.2101L171.81 102.31L159.79 104.47L158.82 111.21L173.36 108.59L171.73 119.96L144.69 124.83L151.4 77.9801H151.41Z" fill="white"/>
<path d="M183.78 72.1499L203.2 68.6499C213.13 66.8599 213.9 71.6999 212.39 82.2499C211.47 88.6499 210.2 93.5199 206.19 96.6999L208.73 113.29L195.85 115.61L194.38 100.68L191.86 101.13L189.63 116.72L177.07 118.98L183.78 72.1299V72.1499ZM195.63 90.1799C198.69 89.6299 199.15 89.3499 199.8 84.7799C200.41 80.4899 200.49 79.9399 196.95 80.5799L194.75 80.9799L193.37 90.5799L195.62 90.1699L195.63 90.1799Z" fill="white"/>
</g>
<defs>
<clipPath id="clip0_43_10">
<rect width="238" height="166" fill="white"/>
</clipPath>
</defs>
</svg>
